<svg xmlns="http://www.w3.org/2000/svg" viewBox="0 0 150 50"><defs><style>.a{fill:#c6c6c6;}.b{fill:#343539;}.c{fill:#ea524b;}.d{fill:#fff;}.e{fill:#65a06b;}.f{fill:#d63434;}.g{fill:#f39156;}.h{fill:#ea5b43;}.i{fill:#3e7c55;}.j{fill:#fded50;}.k{fill:#dc6058;}.l{fill:#e97a67;}.m{fill:#fbbb49;}.n{fill:#e7c2ce;}.o{fill:#dc4547;}.p{fill:#e8d9e2;}.q{fill:#d2c9d7;}</style></defs><title>April-market</title><path class="a" d="M88.61,17.09C88.23,24,87.8,31.8,88.75,38a3.62,3.62,0,0,0,2.92,2.7c.43.11.88.21,1.34.31a4.2,4.2,0,0,0,2.11,0c.16.44.68,1,3.14,1.26l.67.06.67.06h.06c2.39.22,3-.25,3.26-.66a4.23,4.23,0,0,0,2.07.42h.09c1.54.29,3,.1,3.82-1a2.51,2.51,0,0,0,.82-1.17c2.09-5.91,3.12-13.68,4-20.52.15-1.11.29-2.18.43-3.21a3.35,3.35,0,0,0-3.07-4L109.34,12c-1.59-.17-2.51-.05-3,.4a5,5,0,0,0-3-1.13,6,6,0,0,0-2.44-5.47A1.5,1.5,0,0,0,99,5.82l-.05,0a1.47,1.47,0,0,0-.53,1.23,1.53,1.53,0,0,0,.72,1.18A2.67,2.67,0,0,1,100.46,11a5.14,5.14,0,0,0-3.24.55c-.43-.54-1.31-.83-2.92-1l-1.76-.07a3.35,3.35,0,0,0-2.66.84,3.39,3.39,0,0,0-1.1,2.53C88.73,14.89,88.67,16,88.61,17.09Z"/><path class="a" d="M59.82,12.38a2.65,2.65,0,1,0-1-5.21h0a2.88,2.88,0,0,0-3.22-1.84,2.46,2.46,0,0,0-.53.15,3.3,3.3,0,0,0-6.18,1.12,2.56,2.56,0,0,0-.55,0A2.88,2.88,0,0,0,46,9.51h0a2.65,2.65,0,0,0,.95,5.21l4.76-.86.71,3.9a5.11,5.11,0,0,0-2.33,2.06A5.05,5.05,0,0,0,49.63,24l6.22,21.05a3.39,3.39,0,0,0,3.87,2.38h0a3.39,3.39,0,0,0,2.76-3.64l-2-21.88a5,5,0,0,0-4.77-4.77l-.71-3.9Z"/><path class="a" d="M92.74,18.56a1.84,1.84,0,0,0-1.93-1.08,2,2,0,0,0-1.37.55,7.11,7.11,0,0,0-6.55-4.28L68.16,14h-.28a7.19,7.19,0,0,0,.23,14.38h.29l14.72-.23a7.11,7.11,0,0,0,6.43-4.56,2,2,0,0,0,1.37.48H91a1.81,1.81,0,0,0,1.77-1.15,2.15,2.15,0,0,0-.46-2.16A2.18,2.18,0,0,0,92.74,18.56Zm-12.81-.14-.06-.17Zm-.12-.32a.77.77,0,0,0-.07-.16A.77.77,0,0,1,79.81,18.1Zm-.13-.3-.07-.16Zm-.14-.28-.07-.15Zm-.13-.26-.09-.15Zm-.11-.18q-.14-.22-.27-.42Q79.17,16.85,79.3,17.08Zm1.25,4.68a1,1,0,0,0,0-.17A1,1,0,0,1,80.55,21.76Zm0-.5c0-.06,0-.13,0-.19S80.52,21.2,80.52,21.26Zm0-.47,0-.2Zm-.06-.45c0-.07,0-.13,0-.2S80.41,20.27,80.42,20.34Zm-.08-.43a1.29,1.29,0,0,0,0-.19A1.29,1.29,0,0,1,80.34,19.91Zm-.08-.4c0-.07,0-.13-.05-.19S80.24,19.44,80.26,19.51Zm-.1-.39a1.21,1.21,0,0,1,0-.18A1.21,1.21,0,0,0,80.16,19.12Zm-.11-.36L80,18.59Zm-4.86,1,0,.18Zm.09.56a1,1,0,0,0,0,.17A1,1,0,0,1,75.28,20.34Zm-2-2.64-.11-.15.11.15Zm.25.4.11.21Zm.24.48a2,2,0,0,1,.1.21A2,2,0,0,0,73.77,18.58Zm.23.57a.78.78,0,0,1,0,.14A.78.78,0,0,0,74,19.15Zm.19.64,0,.17Zm.1.56c0,.06,0,.11,0,.17S74.3,20.41,74.29,20.35Zm.1-2.72.06.12Zm.26.52,0,.08Zm.25.6h0Zm.16.5a.83.83,0,0,1,0,.15A.83.83,0,0,0,75.06,19.25Zm4-2.59a7.31,7.31,0,0,0-.5-.63A7.31,7.31,0,0,1,79,16.66Zm-5.23.08Zm.37.53-.06-.1Zm-.8-1-.07-.07Zm-.53-.52ZM73,17.29l-.13-.16Zm-.43-.49-.14-.14Zm-.32-1.55.11.08ZM72,16.32l.12.1ZM69.91,15.2l.11,0Zm-.53-.13.09,0ZM68.73,15h0Zm1.77.43.12.05Zm.52.24.08,0Zm.49.3.15.09Zm7,.06-.15-.15Zm-.18-.18-.12-.12ZM77.11,15h0Zm1.06.73-.12-.1ZM78,15.54l-.1-.09Zm-.14-.12-.1-.07Zm-.14-.1-.09-.07Zm-.13-.09-.08-.06Zm-.12-.08-.07,0Zm-.1-.06-.07,0ZM77.29,15l-.06,0Zm-.08,0,0,0Zm-.06,0,0,0Zm-14.82,8.4c-.06-.16-.11-.32-.16-.49C62.22,23.05,62.27,23.21,62.33,23.37Zm-.17-.53c0-.15-.08-.31-.11-.46C62.08,22.53,62.12,22.69,62.16,22.84ZM62,22.2,62,21.85Zm.32,1.17A6.49,6.49,0,0,0,63.23,25,6.49,6.49,0,0,1,62.34,23.37Zm1.24,2a6.6,6.6,0,0,0,.87.8A6.6,6.6,0,0,1,63.58,25.39ZM63.25,25l.27.33Zm3.16,2.16-.16,0Zm-.65-.22-.19-.09Zm-.47-.23-.23-.12Zm-.45-.25-.24-.17Zm1.94.8.19,0Zm.57.09.18,0Z"/><path class="a" d="M80.55,30.22a14.16,14.16,0,0,0-4.19.65l-.1,0a14.3,14.3,0,0,0-4.33-.56c-4.34.07-7.71,1.79-7.68,3.91a2.85,2.85,0,0,0,0,.29.77.77,0,0,0,0,.15A3.81,3.81,0,0,0,66,37.79a7.42,7.42,0,0,0,.79.45,6.17,6.17,0,0,0,2.11.66,16.42,16.42,0,0,0,3.2.24,14.29,14.29,0,0,0,3.41-.42,6.13,6.13,0,0,0,1.07-.18,14.46,14.46,0,0,0,4.14.46c5.7-.09,7.7-2.48,7.66-4.69a.4.4,0,0,0,0-.15,1.37,1.37,0,0,0,0-.29C88.31,31.75,84.88,30.15,80.55,30.22Zm-6.2,1.27a11.17,11.17,0,0,1,1.74.4A11.17,11.17,0,0,0,74.35,31.49ZM71,36.91l-.29,0Zm-.65,0-.37,0Zm-.61-.07-.43-.07Zm-.58-.09-.46-.1Zm-.54-.12-.47-.12Zm-.51-.13-.46-.15Zm-.47-.16-.44-.16Zm-.44-.16a5.39,5.39,0,0,1-1.16-.64A5.92,5.92,0,0,0,67.22,36.13Zm11.06-3L78.19,33Zm.43.71s0,0,0,0S78.71,33.79,78.71,33.8Zm-.09-.25,0-.06Zm-.16-.25,0-.06ZM78,32.85l-.14-.11Zm-.24-.18-.31-.19Zm-.37-.22a7,7,0,0,0-1.31-.56A7,7,0,0,1,77.4,32.45Zm-3.24-1-.32,0Zm-.63-.07-.28,0Zm-.69,0h0Zm-7.61,2.89a1.09,1.09,0,0,0,0,.25A1.09,1.09,0,0,1,65.23,34.24Zm.06.31a1.54,1.54,0,0,0,.08.19A1.54,1.54,0,0,1,65.29,34.55Zm.11.24a1.37,1.37,0,0,0,.13.2A1.37,1.37,0,0,1,65.4,34.79Zm.17.24.19.21Zm.21.23a3.2,3.2,0,0,0,.27.22A3.2,3.2,0,0,1,65.78,35.26Z"/><path class="a" d="M51.18,23.07c4.22-3.08,2.61-9,2.59-9a.56.56,0,0,0-.29-.35.49.49,0,0,0-.41,0,9.25,9.25,0,0,0-5.27,9A23.14,23.14,0,0,0,32,18.61l-1.42-4.73a.57.57,0,0,0-.32-.29.61.61,0,0,0-.46,0,12.2,12.2,0,0,0-6,7c-6.89,2.81-12.16,8.12-14,14.33a.49.49,0,0,0,.16.52,21.49,21.49,0,0,0,11.91,4.69.45.45,0,0,0,.3,0,27.08,27.08,0,0,0,7.42-.45,12.23,12.23,0,0,0,8.81,2.48l.07,0A.63.63,0,0,0,38.7,42a.55.55,0,0,0,.11-.42L37.42,36.9A23.35,23.35,0,0,0,48.27,25.26a7.43,7.43,0,0,0,7,4.07h.62a9.87,9.87,0,0,0,2-.29h0a.57.57,0,0,0,.29-.32.59.59,0,0,0,0-.47A9,9,0,0,0,51.18,23.07Z"/><path class="a" d="M141.39,38.82c1.79-5,1.4-16.26-3.8-18.14-1.67-.61-3.73-.18-6,1.23-.71-3.21-2.13-5.89-4.5-6.74s-5.71.33-9.14,3.45a25.28,25.28,0,0,0-6.31,8.79,10.35,10.35,0,0,0,12.47,13.51l0,.06a9.75,9.75,0,0,0,17.23-2.16Z"/><path class="b" d="M110,13h0a2.83,2.83,0,0,0,0-.5l-.11.15Z"/><path class="c" d="M100.31,36.75c2.71,0,3.56-3.75,4.19-5.78a60.68,60.68,0,0,0,1.89-7.77,64.67,64.67,0,0,0,.86-8c0-.92.46-2.9-.32-3.59s-1.88-.4-2.66-.31a1,1,0,0,1-.52-.08c.06.76.08,1.66.06,2.71a.49.49,0,0,1-.49.49h0a.48.48,0,0,1-.44-.49,29,29,0,0,0-.13-3.41h0c-.08-.72-1.27-1.25-3.19-1.4L97.68,9c-1.92-.21-3.19.09-3.4.78a.3.3,0,0,1,0,.1,51.8,51.8,0,0,0-1.47,8.5.49.49,0,0,1-.54.44h0a.49.49,0,0,1-.43-.55c0-.37.08-.73.13-1.09A12.29,12.29,0,0,0,91,15.27a9.09,9.09,0,0,0-.58-1.56,5.44,5.44,0,0,0-.76-1.79c-.55-.82-1.21-1-2-1.45a1.49,1.49,0,0,1-.78-.86,2.45,2.45,0,0,0-.3,1.22v0c-.06,1.05-.12,2.13-.18,3.25-.37,6.85-.8,14.61.14,20.71a2.54,2.54,0,0,0,1.78,1.77,4.06,4.06,0,0,0,.65-.27,6.26,6.26,0,0,0,2.54-2.93.39.39,0,0,1,.11.06.5.5,0,0,1,.46-.33.48.48,0,0,1,.5.49,27.69,27.69,0,0,0,.18,3.33.43.43,0,0,1,0,.16c0,.19.08.37.12.52h0s.26.41,2.23.59h.06l1.34.13h.06c2,.18,2.31-.17,2.31-.18.1-.21.21-.49.33-.83a.49.49,0,0,1,.4-.32A1,1,0,0,1,100.31,36.75Zm3.15-8a.5.5,0,0,1,.09-1A.5.5,0,0,1,103.46,28.74Zm-.32-3a.49.49,0,0,1,.09-1A.49.49,0,0,1,103.14,25.73Zm.14-10a.51.51,0,0,1,.47.52q0,1-.12,2.13a.49.49,0,0,1-.53.46h0a.5.5,0,0,1-.45-.52c0-.73.09-1.44.12-2.11A.5.5,0,0,1,103.28,15.68Zm-14.44-2.6a.49.49,0,0,1,.1-1A.49.49,0,0,1,88.84,13.08Zm1,21.23a.49.49,0,0,1,.09-1A.49.49,0,0,1,89.84,34.31Zm2.27-1.8h0a.49.49,0,0,1-.44-.5c0-.44,0-.9,0-1.36a.49.49,0,0,1,.51-.48.48.48,0,0,1,.48.5q0,.7,0,1.35A.49.49,0,0,1,92.11,32.51ZM100,27.82a.5.5,0,0,1,.09-1A.5.5,0,0,1,100,27.82Zm-.54,8c.1-.45.2-1,.31-1.49a.49.49,0,0,1,1,.19c-.11.55-.21,1.06-.32,1.52a.5.5,0,0,1-.53.39l-.06,0A.49.49,0,0,1,99.43,35.78Z"/><path class="d" d="M99.91,12.24A2.45,2.45,0,0,1,95,12a2.45,2.45,0,0,1,4.88.23Z"/><path class="d" d="M96.4,16.25A1.22,1.22,0,1,1,95.24,15,1.22,1.22,0,0,1,96.4,16.25Z"/><path class="b" d="M96.39,3.65a.46.46,0,0,0-.13.36s0,0,0,.07A1.06,1.06,0,0,1,96.39,3.65Z"/><path class="b" d="M98.28,8V8l.84.08c0-.06,0-.13,0-.2A1.18,1.18,0,0,1,98.28,8Z"/><path class="e" d="M96.27,4.08a.48.48,0,0,0,.24.33A3.65,3.65,0,0,1,98.28,8a1.18,1.18,0,0,0,.86-.09,5,5,0,0,0-2-4.36.5.5,0,0,0-.62,0l0,0a.1.1,0,0,0,0,0A1.06,1.06,0,0,0,96.27,4.08Z"/><path class="f" d="M89,36.32a4.06,4.06,0,0,1-.65.27,2.38,2.38,0,0,0,.38.11q.64.16,1.32.3c1,.2,1.54.08,1.67,0s0,0,0-.08a.49.49,0,0,1,0-.21c-.08-.8-.13-1.82-.14-3a.47.47,0,0,1,0-.17.39.39,0,0,0-.11-.06A6.26,6.26,0,0,1,89,36.32Z"/><path class="f" d="M87.69,10.47c.79.47,1.45.63,2,1.45a5.44,5.44,0,0,1,.76,1.79A9.09,9.09,0,0,1,91,15.27a12.29,12.29,0,0,1,.89,1.87,47.12,47.12,0,0,1,1.41-7.69s0,0,0,0a.37.37,0,0,0,0-.29c-.22-.3-1-.51-2.23-.61l-1.74-.07h0A2.49,2.49,0,0,0,87.38,9a2.22,2.22,0,0,0-.47.59A1.49,1.49,0,0,0,87.69,10.47Zm2-.09a.5.5,0,0,1-.09,1A.5.5,0,0,1,89.69,10.38Z"/><path class="f" d="M110,13.05v0l-.06-.36.11-.15a2.36,2.36,0,0,0-2.24-2.35h0l-1.75-.25c-1.24-.12-2-.07-2.28.19a.4.4,0,0,0-.1.34c0,.24,0,.51.07.8a1,1,0,0,0,.52.08c.78-.09,2-.26,2.66.31s.36,2.67.32,3.59a64.67,64.67,0,0,1-.86,8A60.68,60.68,0,0,1,104.5,31c-.63,2-1.48,5.73-4.19,5.78a1,1,0,0,0-.68.27.46.46,0,0,1,.23,0,.5.5,0,0,1,.31.62c0,.06,0,.07,0,.08s.64.37,1.65.36l1.33-.05a2.73,2.73,0,0,0,2.48-1.43c2.05-5.83,3.07-13.54,4-20.34C109.75,15.17,109.89,14.09,110,13.05Zm-2.13,0a.5.5,0,0,1,.09-1A.5.5,0,0,1,107.9,13.08Z"/><path class="b" d="M101.92,39.09c1.54.28,3,.09,3.82-1a4.24,4.24,0,0,1-2.55.94Z"/><path class="b" d="M110.4,10.51a3.36,3.36,0,0,0-2.46-1.33l-1.76-.25c-1.59-.17-2.51,0-3,.41a5,5,0,0,0-3-1.14,6,6,0,0,0-2.44-5.47,1.5,1.5,0,0,0-1.82.07l0,0A1.49,1.49,0,0,0,96,5.25a2.64,2.64,0,0,1,1.31,2.69,5,5,0,0,0-3.23.55c-.43-.54-1.31-.84-2.92-1l-1.76-.07a3.35,3.35,0,0,0-3.76,3.38c-.05,1-.11,2.12-.17,3.23-.38,6.9-.81,14.71.14,20.9a3.62,3.62,0,0,0,2.91,2.7l1.35.31a4.2,4.2,0,0,0,2.11,0c.15.45.68,1,3.14,1.26l.67.06.66.06h.07c2.39.22,3-.25,3.25-.66a4.29,4.29,0,0,0,2.08.42h.09l1.27-.05a4.24,4.24,0,0,0,2.55-.94,2.59,2.59,0,0,0,.82-1.17c2.09-5.91,3.11-13.67,4-20.52.15-1.1.29-2.18.43-3.21A3.37,3.37,0,0,0,110.4,10.51Zm-14-6.86a.1.1,0,0,1,0,0l0,0a.5.5,0,0,1,.62,0,5,5,0,0,1,2,4.36c0,.07,0,.14,0,.2L98.28,8V8a3.65,3.65,0,0,0-1.77-3.58.48.48,0,0,1-.24-.33s0,0,0-.07A.46.46,0,0,1,96.39,3.65Zm6.76,34.4-1.33.05c-1,0-1.54-.21-1.65-.36s0,0,0-.08a.5.5,0,0,0-.31-.62.46.46,0,0,0-.23,0,.49.49,0,0,0-.4.32c-.12.34-.23.62-.33.83,0,0-.32.36-2.31.18h-.06l-1.34-.13h-.06c-2-.18-2.23-.59-2.23-.59h0c0-.15-.08-.33-.12-.52a.43.43,0,0,0,0-.16,27.69,27.69,0,0,1-.18-3.33.48.48,0,0,0-.5-.49.5.5,0,0,0-.46.33.47.47,0,0,0,0,.17c0,1.22.06,2.24.14,3a.49.49,0,0,0,0,.21c0,.06,0,.07,0,.08s-.69.25-1.67,0q-.67-.14-1.32-.3a2.38,2.38,0,0,1-.38-.11,2.54,2.54,0,0,1-1.78-1.77c-.94-6.1-.51-13.86-.14-20.71.06-1.12.12-2.2.18-3.25v0a2.45,2.45,0,0,1,.3-1.22A2.22,2.22,0,0,1,87.38,9a2.49,2.49,0,0,1,1.91-.59h0l1.74.07c1.26.1,2,.31,2.23.61a.37.37,0,0,1,0,.29s0,0,0,0a47.12,47.12,0,0,0-1.41,7.69c0,.36-.09.72-.13,1.09a.49.49,0,0,0,.43.55h0a.49.49,0,0,0,.54-.44,51.8,51.8,0,0,1,1.47-8.5.3.3,0,0,0,0-.1c.21-.69,1.48-1,3.4-.78l1.83.17c1.92.15,3.11.68,3.19,1.4h0a29,29,0,0,1,.13,3.41.48.48,0,0,0,.44.49h0a.49.49,0,0,0,.49-.49c0-1,0-1.95-.06-2.71,0-.29,0-.56-.07-.8a.4.4,0,0,1,.1-.34c.27-.26,1-.31,2.28-.19l1.75.25h0a2.36,2.36,0,0,1,2.24,2.35,2.83,2.83,0,0,1,0,.5h0v0c-.14,1-.28,2.12-.43,3.23-.9,6.8-1.92,14.51-4,20.34A2.73,2.73,0,0,1,103.15,38.05Z"/><path class="b" d="M103.09,18.79h0a.49.49,0,0,0,.53-.46q.08-1.11.12-2.13a.5.5,0,1,0-1,0c0,.67-.07,1.38-.12,2.11A.5.5,0,0,0,103.09,18.79Z"/><path class="b" d="M99.86,36.39a.5.5,0,0,0,.53-.39c.11-.46.21-1,.32-1.52a.49.49,0,0,0-1-.19c-.11.54-.21,1-.31,1.49a.49.49,0,0,0,.37.59Z"/><path class="b" d="M92.16,30.17a.49.49,0,0,0-.51.48c0,.46,0,.92,0,1.36a.49.49,0,0,0,.44.5h0a.49.49,0,0,0,.5-.49q0-.65,0-1.35A.48.48,0,0,0,92.16,30.17Z"/><path class="b" d="M103.46,28.74a.5.5,0,0,0,.09-1A.5.5,0,0,0,103.46,28.74Z"/><path class="b" d="M100.06,26.83a.5.5,0,0,0-.09,1A.5.5,0,0,0,100.06,26.83Z"/><path class="b" d="M103.14,25.73a.49.49,0,0,0,.09-1A.49.49,0,0,0,103.14,25.73Z"/><path class="b" d="M89.6,11.37a.5.5,0,0,0,.09-1A.5.5,0,0,0,89.6,11.37Z"/><path class="b" d="M88.94,12.1a.49.49,0,0,0-.1,1A.49.49,0,0,0,88.94,12.1Z"/><path class="b" d="M89.93,33.33a.49.49,0,0,0-.09,1A.49.49,0,0,0,89.93,33.33Z"/><path class="b" d="M108,12.09a.5.5,0,0,0-.09,1A.5.5,0,0,0,108,12.09Z"/><path class="e" d="M48.55,8a.53.53,0,0,1-.19-1,.49.49,0,0,1,.58.37C50,5.13,47.8,3.6,47,3.1a2.35,2.35,0,0,0-1,2,.5.5,0,0,1-.17.4.52.52,0,0,1-.43.11,1.8,1.8,0,0,0-.73,0,1.89,1.89,0,0,0-1.52,2.2.51.51,0,0,1-.4.58l-.48.08a1.67,1.67,0,0,0-1.34,1.93S46.32,11.06,48.55,8Zm-.3-3.39a.53.53,0,0,1,.19,1A.53.53,0,0,1,48.25,4.6Z"/><path class="b" d="M50.27,3.74c.12.22.2.4.23.47A2.92,2.92,0,0,0,50.27,3.74Z"/><path class="g" d="M54.41,36.25a.5.5,0,0,1,.38-.57c-.47-4.58-1-9.89-1.33-13a15.09,15.09,0,0,0-.91-4.1l0,0a.53.53,0,0,1-.41-.94c-.85-1.39-1.73-1.39-1.73-1.39l-.53.09a4.08,4.08,0,0,0-3.12,5.33v0l.34,1.13,3.24-.58a.49.49,0,0,1,.58.39.5.5,0,0,1-.4.58l-3.14.57.44,1.48,2.35-.43a.48.48,0,0,1,.57.4.49.49,0,0,1-.39.57l-2.25.41.44,1.48L50,27.4a.48.48,0,0,1,.57.39.5.5,0,0,1-.4.58l-1.35.24,4.16,14.1a2.41,2.41,0,0,0,2.75,1.69s-.35-3.44-.79-7.74A.51.51,0,0,1,54.41,36.25ZM55,42.7a.53.53,0,0,1-.19-1A.53.53,0,0,1,55,42.7Z"/><path class="d" d="M51.86,20.14a2.3,2.3,0,1,1-2.94-1.52A2.34,2.34,0,0,1,51.86,20.14Z"/><path class="d" d="M51.45,24.8a1.23,1.23,0,1,1-1.59-.88A1.28,1.28,0,0,1,51.45,24.8Z"/><path class="h" d="M52.09,17.61a.41.41,0,0,1,.22-.1.53.53,0,0,1,.24,1,15.09,15.09,0,0,1,.91,4.1c.32,3.16.86,8.47,1.33,13.05h0l2.25-.41L55.69,19.92a4.08,4.08,0,0,0-4.8-3.8l-.53.1S51.24,16.22,52.09,17.61ZM53.76,19A.53.53,0,0,1,54,20,.53.53,0,0,1,53.76,19Z"/><path class="h" d="M57.65,41.81l-.27-3-1.11.2a.49.49,0,0,1-.18-1l1.2-.22-.14-1.54-2.16.4h-.1c.44,4.3.79,7.74.79,7.74h0A2.4,2.4,0,0,0,57.65,41.81Z"/><path class="i" d="M57.11,7.41a1.65,1.65,0,0,0-1.92-1.33l-.48.09a.51.51,0,0,1-.58-.4,1.88,1.88,0,0,0-2.19-1.52,1.72,1.72,0,0,0-.69.27.5.5,0,0,1-.43.05.49.49,0,0,1-.31-.32s0,0,0,0-.11-.25-.23-.47a2.31,2.31,0,0,0-2.36-1,2.2,2.2,0,0,0-.94.4c.83.5,3,2,2,4.22a.52.52,0,0,1-.39.67c-2.23,3.07-7.61,2.36-7.61,2.36a1.67,1.67,0,0,0,1.93,1.34l5.25-1a.5.5,0,0,1,.58.4l.77,4.24.18,0,1.07-.19.18,0-.77-4.24a.5.5,0,0,1,.4-.58l5.25-.95A1.65,1.65,0,0,0,57.11,7.41Zm-6.53-.65a.53.53,0,0,1-.19-1A.53.53,0,0,1,50.58,6.76Z"/><path class="b" d="M55,5.11h0a2.89,2.89,0,0,0-3.22-1.84,4.61,4.61,0,0,0-.53.15,3.3,3.3,0,0,0-6.18,1.13,2.55,2.55,0,0,0-.55,0,2.88,2.88,0,0,0-2.36,2.85h0a2.65,2.65,0,0,0,.95,5.21l4.76-.87.71,3.9a5.13,5.13,0,0,0-2.33,2.07A5,5,0,0,0,45.77,22L52,43a3.38,3.38,0,0,0,3.86,2.39h0a3.39,3.39,0,0,0,2.76-3.64l-2-21.88a5,5,0,0,0-4.77-4.77l-.71-3.9L56,10.31a2.64,2.64,0,1,0-1-5.2Zm-2.08,37.6-4.16-14.1,1.35-.24a.5.5,0,0,0,.4-.58A.48.48,0,0,0,50,27.4l-1.46.26-.44-1.48,2.25-.41a.49.49,0,0,0,.39-.57.48.48,0,0,0-.57-.4l-2.35.43-.44-1.48,3.14-.57a.5.5,0,0,0,.4-.58.49.49,0,0,0-.58-.39l-3.24.58-.34-1.13v0a4.08,4.08,0,0,1,3.12-5.33l.53-.09.53-.1a4.08,4.08,0,0,1,4.8,3.8l1.37,15.35-2.25.41h0a.5.5,0,0,0-.38.57.51.51,0,0,0,.48.41H55l2.16-.4.14,1.54-1.2.22a.49.49,0,0,0,.18,1l1.11-.2.27,3A2.4,2.4,0,0,1,55.7,44.4h0A2.41,2.41,0,0,1,52.93,42.71Zm-2.4-32.42a.5.5,0,0,0-.4.58l.77,4.24-.18,0-1.07.19-.18,0-.77-4.24a.5.5,0,0,0-.58-.4l-5.25,1a1.66,1.66,0,0,1-.59-3.27l.48-.08a.51.51,0,0,0,.4-.58,1.89,1.89,0,0,1,1.52-2.2,1.8,1.8,0,0,1,.73,0,.52.52,0,0,0,.43-.11.5.5,0,0,0,.17-.4,2.35,2.35,0,0,1,1-2,2.2,2.2,0,0,1,.94-.4,2.31,2.31,0,0,1,2.36,1,2.92,2.92,0,0,1,.23.47s0,0,0,0a.49.49,0,0,0,.31.32.5.5,0,0,0,.43-.05,1.72,1.72,0,0,1,.69-.27,1.88,1.88,0,0,1,2.19,1.52.51.51,0,0,0,.58.4l.48-.09a1.66,1.66,0,0,1,.59,3.26Z"/><path class="b" d="M52.31,17.51a.41.41,0,0,0-.22.1.53.53,0,0,0,.41.94l0,0A.53.53,0,0,0,52.31,17.51Z"/><path class="b" d="M54,20a.53.53,0,0,0-.19-1A.53.53,0,0,0,54,20Z"/><path class="b" d="M54.77,41.66a.53.53,0,0,0,.19,1A.53.53,0,0,0,54.77,41.66Z"/><path class="b" d="M48.36,7a.53.53,0,0,0,.19,1,.52.52,0,0,0,.39-.67A.49.49,0,0,0,48.36,7Z"/><path class="b" d="M50.39,5.72a.53.53,0,0,0,.19,1A.53.53,0,0,0,50.39,5.72Z"/><path class="b" d="M48.44,5.64a.53.53,0,0,0-.19-1A.53.53,0,0,0,48.44,5.64Z"/><path class="d" d="M73.61,12.27a.58.58,0,0,1-.15-.11l-5.24.08a7.13,7.13,0,0,1,2.1,1.84L75.56,14A5,5,0,0,0,73.61,12.27Z"/><path class="j" d="M70.32,14.08a7.2,7.2,0,0,1,1.54,4.31,7,7,0,0,1-.11,1.31l5.34-.08A9.68,9.68,0,0,0,75.56,14Z"/><path class="k" d="M69.81,15a4.23,4.23,0,0,1-1.08,3.74c-2.33,2.9-6.23,3.1-9.87,1.93a6.14,6.14,0,0,0,5.76,4h.29a6,6,0,0,0,4.62-2.35c.17-.27.35-.55.53-.81A6.18,6.18,0,0,0,69.81,15Z"/><path class="l" d="M68.73,18.78A4.23,4.23,0,0,0,69.81,15a6,6,0,0,0-5.1-2.74h-.29a6.19,6.19,0,0,0-5.56,8.41C62.5,21.88,66.4,21.68,68.73,18.78Zm-2.32-3.87a.49.49,0,1,1,0,1C66.1,15.9,66.08,14.92,66.41,14.91Zm-.62,2.37a.49.49,0,1,1,0,1A.49.49,0,0,1,65.79,17.28Zm-2-2.33a.5.5,0,0,1,0,1A.5.5,0,0,1,63.79,15Zm-2.27,1a.49.49,0,1,1,0-1A.49.49,0,1,1,61.52,16Z"/><path class="l" d="M72.28,31.77c.51-.52.41-1.61.34-2.55a13.25,13.25,0,0,0-4.15-.55c-4,.06-6.73,1.58-6.71,2.91,0,.67.75,1.37,2,1.88A10.59,10.59,0,0,0,72.28,31.77ZM68,29.51a.49.49,0,1,1,0,1A.49.49,0,1,1,68,29.51Zm-4.21,2.36a.49.49,0,0,1,0-1A.49.49,0,1,1,63.74,31.87Zm1.94-1.08a.49.49,0,1,1,0-1A.49.49,0,1,1,65.68,30.79Z"/><path class="k" d="M72.62,29.22c.07.94.17,2-.34,2.55a10.59,10.59,0,0,1-8.54,1.69,12.11,12.11,0,0,0,4.49.8h.18l2.39-.19c2.73-.47,4.49-1.65,4.47-2.7C75.26,30.57,74.26,29.75,72.62,29.22Z"/><path class="k" d="M76.25,31.34c0,.1,0,.2,0,.3a.32.32,0,0,1,0,.14,3.53,3.53,0,0,1-.58,2,24.38,24.38,0,0,0,5.9-.43h0C83,32.76,83.9,32,83.89,31.22c0-1.32-2.82-2.75-6.8-2.69a14.83,14.83,0,0,0-2.82.32A3.13,3.13,0,0,1,76.25,31.34ZM82,30.86a.49.49,0,0,1,0,1A.49.49,0,1,1,82,30.86Zm-1.6,2a.49.49,0,0,1,0-1A.49.49,0,1,1,80.43,32.91Zm-.7-2.8a.49.49,0,0,1,0,1A.49.49,0,1,1,79.73,30.11Z"/><path class="b" d="M82.77,33.87l-.06,0h0Z"/><path class="j" d="M77.19,13.11c.2,0,1.51-.08,2-.06a16.26,16.26,0,0,1,4.11.47l.1,0a6,6,0,0,0-4-1.49l-4.28.07a7.31,7.31,0,0,1,1.25,1.42A.88.88,0,0,1,77.19,13.11Z"/><path class="b" d="M86.5,19.34l0,.16a1,1,0,0,0,.19.6.77.77,0,0,0,.44.25A4.49,4.49,0,0,1,86.5,19.34Z"/><path class="b" d="M68.49,24.62l-.07,0h.09Z"/><path class="m" d="M87.47,20.41a.89.89,0,0,0,1-.52,1.33,1.33,0,0,0-.54-1.43.53.53,0,0,1-.18-.37.48.48,0,0,1,.17-.37,1.34,1.34,0,0,0,.49-1.45.88.88,0,0,0-1-.48,1.06,1.06,0,0,0-.81.34,1.09,1.09,0,0,0-.15.72,8,8,0,0,1,.14,1.31,6.56,6.56,0,0,1-.08,1.18,4.49,4.49,0,0,0,.6,1A1.91,1.91,0,0,0,87.47,20.41Z"/><path class="b" d="M68.58,35.25a12.6,12.6,0,0,1-5.8-1.15l.28.22c1.17.82,3,1.21,5.52,1.17,2.78,0,4.56-.65,5.57-1.48A12.74,12.74,0,0,1,68.58,35.25Z"/><path class="b" d="M68.23,34.26c.11,0,.22,0,.33,0a14.13,14.13,0,0,0,2.24-.2l-2.39.19Z"/><path class="b" d="M75.68,33.77c-.06.1-.13.19-.2.29.55,0,1.12.07,1.7.07a12.78,12.78,0,0,0,4.4-.79h0A24.38,24.38,0,0,1,75.68,33.77Z"/><path class="b" d="M72,36.06a7.24,7.24,0,0,0,1.07-.18l-.23-.07C72.59,35.9,72.31,36,72,36.06Z"/><path class="b" d="M65.4,36.23a8.31,8.31,0,0,1-2.11-.66A5.71,5.71,0,0,0,65.4,36.23Z"/><path class="b" d="M82.72,33.91h0a12.77,12.77,0,0,1-5.52,1.21A15.89,15.89,0,0,1,74.68,35a.19.19,0,0,1-.1,0l-.33.22a14.76,14.76,0,0,0,3,.21C79.94,35.31,81.69,34.72,82.72,33.91Z"/><path class="m" d="M79.63,24.48a6.16,6.16,0,0,0,5.86-5.07,2.61,2.61,0,0,1,0-.37l0-.07a7.14,7.14,0,0,0,0-.8,5.75,5.75,0,0,0-.09-.93h0s0-.12,0-.24a6.35,6.35,0,0,0-2-3.44l-.1,0a16.26,16.26,0,0,0-4.11-.47c-.52,0-1.83,0-2,.06a.88.88,0,0,0-.79.44,10.85,10.85,0,0,1,1.67,6.52.52.52,0,0,1-.48.52l-6.08.1a7.29,7.29,0,0,1-3,3.93l0,0Zm-1.22-1.86c3.44-.05,3.91-1.74,3.91-1.75a.49.49,0,1,1,1,.21c0,.1-.59,2.45-4.86,2.52a.48.48,0,0,1-.49-.48A.49.49,0,0,1,78.41,22.62Z"/><path class="b" d="M70.06,21.56c-.18.26-.36.54-.53.81A6.27,6.27,0,0,0,70.06,21.56Z"/><path class="b" d="M88.88,18.07a2.17,2.17,0,0,0,.39-2.17,1.86,1.86,0,0,0-1.93-1.09,2.07,2.07,0,0,0-1.38.55,7.09,7.09,0,0,0-6.54-4.28l-14.73.24H64.4a7.19,7.19,0,0,0,.23,14.38h.29l14.73-.24a7.11,7.11,0,0,0,6.43-4.55,2.07,2.07,0,0,0,1.36.48h.12a1.84,1.84,0,0,0,1.78-1.15A2.21,2.21,0,0,0,88.88,18.07ZM73.46,12.16a.58.58,0,0,0,.15.11c.15.07,3.43,1.46,3.48,7.35l-5.34.08a7,7,0,0,0,.11-1.31,7.31,7.31,0,0,0-3.64-6.15ZM64.62,24.72a6.21,6.21,0,0,1-.2-12.42h.29a6.2,6.2,0,0,1,5.35,9.26,6.27,6.27,0,0,1-.53.81,6,6,0,0,1-4.62,2.35Zm3.87-.1a7.29,7.29,0,0,0,3-3.93l6.08-.1a.52.52,0,0,0,.48-.52,10.85,10.85,0,0,0-1.67-6.52,7.31,7.31,0,0,0-1.25-1.42l4.28-.07a6,6,0,0,1,4,1.49,6.35,6.35,0,0,1,2,3.44c0,.12,0,.21,0,.24h0a5.75,5.75,0,0,1,.09.93,7.14,7.14,0,0,1,0,.8l0,.07a2.61,2.61,0,0,0,0,.37,6.16,6.16,0,0,1-5.86,5.07l-11.12.18h-.09Zm18-5.12,0-.16a6.56,6.56,0,0,0,.08-1.18,8,8,0,0,0-.14-1.31,1.09,1.09,0,0,1,.15-.72,1.06,1.06,0,0,1,.81-.34.88.88,0,0,1,1,.48,1.34,1.34,0,0,1-.49,1.45.48.48,0,0,0-.17.37.53.53,0,0,0,.18.37,1.33,1.33,0,0,1,.54,1.43.89.89,0,0,1-1,.52,1.91,1.91,0,0,1-.37-.06.77.77,0,0,1-.44-.25A1,1,0,0,1,86.47,19.5Z"/><path class="b" d="M63.79,15a.5.5,0,0,0,0,1A.5.5,0,0,0,63.79,15Z"/><path class="b" d="M61.51,15a.49.49,0,1,0,0,1A.49.49,0,1,0,61.51,15Z"/><path class="b" d="M65.81,18.26a.49.49,0,1,0,0-1A.49.49,0,0,0,65.81,18.26Z"/><path class="b" d="M66.42,15.89a.49.49,0,1,0,0-1C66.08,14.92,66.1,15.9,66.42,15.89Z"/><path class="b" d="M78.42,23.6c4.27-.07,4.84-2.42,4.86-2.52a.49.49,0,1,0-1-.21s-.47,1.7-3.91,1.75a.49.49,0,0,0-.48.5A.48.48,0,0,0,78.42,23.6Z"/><path class="b" d="M77.07,27.55a14.36,14.36,0,0,0-4.18.65.31.31,0,0,0-.1.05,14.06,14.06,0,0,0-4.34-.56c-4.33.07-7.71,1.78-7.67,3.9a1.53,1.53,0,0,0,0,.3.22.22,0,0,0,0,.14,3.79,3.79,0,0,0,1.71,3.09,5,5,0,0,0,.79.45,8.31,8.31,0,0,0,2.11.66,15.57,15.57,0,0,0,3.19.24A14.89,14.89,0,0,0,72,36.06c.3-.08.58-.16.84-.25l.23.07a14.07,14.07,0,0,0,4.13.45c5.71-.09,7.7-2.48,7.67-4.68a.66.66,0,0,0,0-.15c0-.1,0-.2,0-.3C84.83,29.09,81.41,27.48,77.07,27.55Zm0,1c4-.06,6.78,1.37,6.8,2.69,0,.74-.85,1.54-2.31,2.12a12.78,12.78,0,0,1-4.4.79c-.58,0-1.15,0-1.7-.07.07-.1.14-.19.2-.29a3.53,3.53,0,0,0,.58-2,.32.32,0,0,0,0-.14c0-.1,0-.2,0-.3a3.13,3.13,0,0,0-2-2.49A14.83,14.83,0,0,1,77.09,28.53Zm-8.51,7c-2.5,0-4.35-.35-5.52-1.17l-.28-.22a12.6,12.6,0,0,0,5.8,1.15A12.74,12.74,0,0,0,74.15,34C73.14,34.84,71.36,35.45,68.58,35.49Zm-.11-6.82c4-.06,6.78,1.37,6.8,2.69,0,1-1.74,2.23-4.47,2.7a14.13,14.13,0,0,1-2.24.2c-.11,0-.22,0-.33,0-3.8,0-6.45-1.4-6.47-2.68S64.49,28.73,68.47,28.67Zm6.11,6.25a.19.19,0,0,0,.1,0,15.89,15.89,0,0,0,2.51.16,12.77,12.77,0,0,0,5.52-1.21l.06,0,0,0c-1,.81-2.78,1.4-5.52,1.44a14.76,14.76,0,0,1-3-.21Z"/><path class="b" d="M65.68,30.79a.49.49,0,1,0,0-1A.49.49,0,1,0,65.68,30.79Z"/><path class="b" d="M63.74,31.87a.49.49,0,1,0,0-1A.49.49,0,0,0,63.74,31.87Z"/><path class="b" d="M68,30.49a.49.49,0,1,0,0-1A.49.49,0,1,0,68,30.49Z"/><path class="b" d="M82.05,31.84a.49.49,0,0,0,0-1A.49.49,0,1,0,82.05,31.84Z"/><path class="b" d="M80.43,32.91a.49.49,0,1,0,0-1A.49.49,0,0,0,80.43,32.91Z"/><path class="b" d="M79.75,31.09a.49.49,0,0,0,0-1A.49.49,0,1,0,79.75,31.09Z"/><path class="l" d="M14.26,23.13a12.4,12.4,0,0,1,3.63,3.35,10.17,10.17,0,0,1,1.84,6.87A36.85,36.85,0,0,0,28.22,31l4.67-8.66a.5.5,0,0,1,.67-.19.49.49,0,0,1,.19.66L29.63,30.4l1.45-.6,3.29-6.08a.48.48,0,0,1,.66-.2.49.49,0,0,1,.2.67l-2.69,5,1.51-.71,1.26-2.34a.49.49,0,0,1,.87.46l-.58,1.07c5.67-3.13,7.32-6,7.32-6-5.32-3.84-13-4.87-20.37-2.67A26.62,26.62,0,0,0,14.26,23.13Zm17.56-2a.5.5,0,0,1,.2.66L27.09,31a.52.52,0,0,1-.29.24.47.47,0,0,1-.38,0,.49.49,0,0,1-.2-.66l4.93-9.13A.49.49,0,0,1,31.82,21.16Zm-2.15-.53a.49.49,0,0,1,.2.66l-4.4,8.16a.5.5,0,0,1-.67.19.48.48,0,0,1-.2-.66L29,20.83A.49.49,0,0,1,29.67,20.63Zm-2.53.53a.49.49,0,0,1,.2.66L24.52,27a.49.49,0,0,1-.29.24.53.53,0,0,1-.37,0,.49.49,0,0,1-.2-.67l2.81-5.21A.49.49,0,0,1,27.14,21.16Z"/><path class="d" d="M45.42,17.91a5.8,5.8,0,0,1,2.52-3.39,1,1,0,0,1,1.1.09,9.79,9.79,0,0,0-.16-1.37,8.29,8.29,0,0,0-4.17,7.92A10.13,10.13,0,0,1,45.42,17.91Z"/><path class="d" d="M26.3,15.63a.8.8,0,0,1,.15,0l-.74-2.49a11,11,0,0,0-3.83,3.68Z"/><path class="d" d="M52.5,25.75a8,8,0,0,0-5.35-3.33C48.91,23.57,50.71,24.65,52.5,25.75Z"/><path class="b" d="M45.28,23.56l0,.08s0-.05,0-.08Z"/><path class="d" d="M13.29,32.29a.94.94,0,1,0-1.17-.63A1,1,0,0,0,13.29,32.29Z"/><path class="d" d="M15.65,25.41a11.69,11.69,0,0,0-2.23-1.63,20.65,20.65,0,0,0-6.75,9.51,19.46,19.46,0,0,0,7.41,3.63C19.73,34.59,17,28.05,15.65,25.41Zm-3.18,4.14a1.92,1.92,0,1,1-1.29,2.39A1.93,1.93,0,0,1,12.47,29.55Z"/><path class="n" d="M21.88,16.79a12.54,12.54,0,0,0-.92,1.7l1.31-.43a28.27,28.27,0,0,1,4.63-1l-.45-1.49a.8.8,0,0,0-.15,0Z"/><path class="n" d="M47.94,14.52a5.8,5.8,0,0,0-2.52,3.39,10.13,10.13,0,0,0-.71,3.25c0,.07,0,.14,0,.21l.4,0A6.48,6.48,0,0,0,49,14.61,1,1,0,0,0,47.94,14.52Z"/><path class="n" d="M45.61,22.3a8.32,8.32,0,0,1-.8.3,8.56,8.56,0,0,0,.47,1h0s0,.05,0,.08a6,6,0,0,0,4.43,2.89A9.69,9.69,0,0,0,53,26.48c-.15-.26-.31-.5-.47-.73-1.79-1.1-3.59-2.18-5.35-3.33A9.87,9.87,0,0,0,45.61,22.3Z"/><path class="b" d="M51.86,27.69h0Z"/><path class="b" d="M51.5,27.7h0Z"/><path class="k" d="M33.36,31.81a.49.49,0,0,1-.29.24.53.53,0,0,1-.37,0,.49.49,0,0,1-.2-.66l1.55-2.88-1.51.71-1.71,3.16a.52.52,0,0,1-.29.24.56.56,0,0,1-.38,0,.5.5,0,0,1-.19-.67l1.11-2.07-1.45.6-.8,1.49a.51.51,0,0,1-.3.24.53.53,0,0,1-.37,0,.49.49,0,0,1-.2-.67l.26-.47a36.85,36.85,0,0,1-8.49,2.4,14.51,14.51,0,0,1-1.09,4.27,26.89,26.89,0,0,0,9.15-1.1c7.71-2.31,13.75-7.75,15.86-14.25a.14.14,0,0,1,0-.07l-.71-.53s-1.65,2.86-7.32,6Z"/><path class="n" d="M26.8,37.8a11.59,11.59,0,0,0,6.84,1.84l-1.17-3.91a28.14,28.14,0,0,1-4.4,1.73C27.65,37.58,27.22,37.7,26.8,37.8Z"/><path class="n" d="M14.08,36.92a24,24,0,0,0,3.52.62c1.75-4,1.59-7.52-.49-10.46a10.64,10.64,0,0,0-1.46-1.67C17,28.05,19.73,34.59,14.08,36.92Z"/><path class="o" d="M23.86,27.24a.53.53,0,0,0,.37,0,.49.49,0,0,0,.29-.24l2.82-5.22a.49.49,0,0,0-.87-.46l-2.81,5.21A.49.49,0,0,0,23.86,27.24Z"/><path class="o" d="M24.8,29.64a.5.5,0,0,0,.67-.19l4.4-8.16a.49.49,0,0,0-.2-.66.49.49,0,0,0-.67.2L24.6,29A.48.48,0,0,0,24.8,29.64Z"/><path class="o" d="M26.42,31.15a.47.47,0,0,0,.38,0,.52.52,0,0,0,.29-.24L32,21.82a.5.5,0,0,0-.2-.66.49.49,0,0,0-.67.2l-4.93,9.13A.49.49,0,0,0,26.42,31.15Z"/><path class="o" d="M28.16,32.09a.53.53,0,0,0,.37,0,.51.51,0,0,0,.3-.24l.8-1.49,4.12-7.64a.49.49,0,0,0-.19-.66.5.5,0,0,0-.67.19L28.22,31l-.26.47A.49.49,0,0,0,28.16,32.09Z"/><path class="o" d="M30.16,32.54a.56.56,0,0,0,.38,0,.52.52,0,0,0,.29-.24l1.71-3.16,2.69-5a.49.49,0,0,0-.2-.67.48.48,0,0,0-.66.2L31.08,29.8,30,31.87A.5.5,0,0,0,30.16,32.54Z"/><path class="o" d="M32.7,32a.53.53,0,0,0,.37,0,.49.49,0,0,0,.29-.24l2.24-4.15.58-1.07a.49.49,0,0,0-.87-.46l-1.26,2.34L32.5,31.35A.49.49,0,0,0,32.7,32Z"/><path class="b" d="M13.57,33.23a1.92,1.92,0,1,0-2.39-1.29A1.93,1.93,0,0,0,13.57,33.23Zm-.82-2.74a.94.94,0,1,1-.63,1.17A1,1,0,0,1,12.75,30.49Z"/><path class="b" d="M54.15,26.61a9,9,0,0,0-7-5.17c4.23-3.08,2.61-9,2.59-9a.55.55,0,0,0-.28-.35.51.51,0,0,0-.42,0,9.24,9.24,0,0,0-5.27,9A23.17,23.17,0,0,0,27.89,17l-1.41-4.73a.54.54,0,0,0-.32-.29.64.64,0,0,0-.47,0,12.16,12.16,0,0,0-6,7c-6.9,2.81-12.16,8.13-14,14.34a.47.47,0,0,0,.15.51,21.48,21.48,0,0,0,11.91,4.7.53.53,0,0,0,.3,0,27.55,27.55,0,0,0,7.43-.45,12.19,12.19,0,0,0,8.8,2.47h.07a.71.71,0,0,0,.33-.22.58.58,0,0,0,.12-.43l-1.39-4.65A23.3,23.3,0,0,0,44.2,23.64a7.46,7.46,0,0,0,7,4.07h.61a10.55,10.55,0,0,0,2-.28h0a.53.53,0,0,0,.29-.33A.64.64,0,0,0,54.15,26.61Zm-1.65-.86c.16.23.32.47.47.73a9.69,9.69,0,0,1-3.21.05,6,6,0,0,1-4.43-2.89l0-.08a8.56,8.56,0,0,1-.47-1,8.32,8.32,0,0,0,.8-.3,9.87,9.87,0,0,1,1.54.12A8,8,0,0,1,52.5,25.75ZM48.88,13.24A9.79,9.79,0,0,1,49,14.61a6.48,6.48,0,0,1-3.92,6.73l-.4,0c0-.07,0-.14,0-.21A8.29,8.29,0,0,1,48.88,13.24Zm-6,8.43.71.53a.14.14,0,0,0,0,.07c-2.11,6.5-8.15,11.94-15.86,14.25a26.89,26.89,0,0,1-9.15,1.1,14.51,14.51,0,0,0,1.09-4.27,10.17,10.17,0,0,0-1.84-6.87,12.4,12.4,0,0,0-3.63-3.35A26.62,26.62,0,0,1,22.55,19C29.93,16.8,37.6,17.83,42.92,21.67ZM32.47,35.73l1.17,3.91A11.59,11.59,0,0,1,26.8,37.8c.42-.1.85-.22,1.27-.34A28.14,28.14,0,0,0,32.47,35.73Zm-6-20.13.45,1.49a28.27,28.27,0,0,0-4.63,1L21,18.49a12.54,12.54,0,0,1,.92-1.7,11,11,0,0,1,3.83-3.68ZM6.67,33.29a20.65,20.65,0,0,1,6.75-9.51,11.69,11.69,0,0,1,2.23,1.63,10.64,10.64,0,0,1,1.46,1.67c2.08,2.94,2.24,6.46.49,10.46a24,24,0,0,1-3.52-.62A19.46,19.46,0,0,1,6.67,33.29Z"/><path class="p" d="M133.26,33.08a13.58,13.58,0,0,0,3-6.09.54.54,0,0,1-.1-.3,13.36,13.36,0,0,0-.66-4.17.51.51,0,1,1,1-.34c0,.1.07.2.1.29a18.69,18.69,0,0,0-.8-4.19,3.58,3.58,0,0,0-.95-.53c-1.8-.65-3.89.32-5.42,1.34a25,25,0,0,1-.68,11.47,10.21,10.21,0,0,1-2.41,3.8C127.34,35.06,130.24,36.57,133.26,33.08Zm1.13-13.64a3.22,3.22,0,0,1,1.12.89.51.51,0,0,1-.57.81.5.5,0,0,1-.22-.16,2.19,2.19,0,0,0-.77-.61.53.53,0,0,1-.25-.68A.52.52,0,0,1,134.39,19.44Z"/><path class="d" d="M127.78,30.21a23.85,23.85,0,0,0,.72-10.29c0-.3-.09-.59-.14-.87a.57.57,0,0,1,0-.18c-.67-3.56-2.09-6-4-6.64C119.65,10.53,112,19,110.23,23.86a9.33,9.33,0,1,0,17.55,6.35Zm-11,2.85a6.09,6.09,0,1,1,7.8-3.66A6.11,6.11,0,0,1,116.82,33.06Z"/><path class="j" d="M121.79,23.19a5.45,5.45,0,0,0-1.17-.62,5.06,5.06,0,0,0-3.45,9.52,5.91,5.91,0,0,0,.69.19C119.23,31.5,121.72,29.25,121.79,23.19Z"/><path class="q" d="M138.7,24.93c-.44-3.2-1.48-5.54-2.91-6.65a18.69,18.69,0,0,1,.8,4.19,14.21,14.21,0,0,1,.62,4.21.51.51,0,0,1-.5.52.48.48,0,0,1-.18,0,.46.46,0,0,1-.24-.17,13.58,13.58,0,0,1-3,6.09c-3,3.49-5.92,2-6.93,1.28a10.4,10.4,0,0,1-3.59,2.33A8.71,8.71,0,0,0,138,34.57,22.34,22.34,0,0,0,138.7,24.93Z"/><path class="m" d="M121.79,23.19c-.07,6.06-2.56,8.31-3.93,9.09a5.05,5.05,0,0,0,3.93-9.09Z"/><path class="b" d="M135.19,16.78c-1.68-.6-3.73-.18-6,1.23-.71-3.2-2.14-5.89-4.5-6.74s-5.71.33-9.14,3.46a25,25,0,0,0-6.31,8.78A10.36,10.36,0,0,0,121.73,37s0,0,0,0a9.62,9.62,0,0,0,4.74,3.69A9.76,9.76,0,0,0,139,34.92C140.78,30,140.39,18.67,135.19,16.78Zm-25,7.08C112,19,119.65,10.53,124.36,12.23c1.88.68,3.3,3.08,4,6.64a.57.57,0,0,0,0,.18c0,.28.1.57.14.87a23.85,23.85,0,0,1-.72,10.29,9.33,9.33,0,1,1-17.55-6.35Zm16.62,16a8.73,8.73,0,0,1-4.11-3.12,10.4,10.4,0,0,0,3.59-2.33,10.21,10.21,0,0,0,2.41-3.8,25,25,0,0,0,.68-11.47c1.53-1,3.62-2,5.42-1.34a3.58,3.58,0,0,1,.95.53c1.43,1.11,2.47,3.45,2.91,6.65a22.34,22.34,0,0,1-.68,9.64A8.74,8.74,0,0,1,126.85,39.81Z"/><path class="b" d="M134,20.37a2.19,2.19,0,0,1,.77.61.5.5,0,0,0,.22.16.51.51,0,0,0,.57-.81,3.22,3.22,0,0,0-1.12-.89.52.52,0,0,0-.69.25A.53.53,0,0,0,134,20.37Z"/><path class="b" d="M135.84,21.86a.51.51,0,0,0-.31.66,13.36,13.36,0,0,1,.66,4.17.54.54,0,0,0,.1.3.46.46,0,0,0,.24.17.48.48,0,0,0,.18,0,.51.51,0,0,0,.5-.52,14.21,14.21,0,0,0-.62-4.21c0-.09-.06-.19-.1-.29A.51.51,0,0,0,135.84,21.86Z"/><path class="b" d="M121,21.61a6.09,6.09,0,1,0,3.65,7.79A6.11,6.11,0,0,0,121,21.61Zm-3.11,10.67a5.91,5.91,0,0,1-.69-.19,5.06,5.06,0,0,1,3.45-9.52,5.45,5.45,0,0,1,1.17.62,5.05,5.05,0,0,1-3.93,9.09Z"/></svg>